<svg xmlns="http://www.w3.org/2000/svg" viewBox="0 0 704.69 263.79"><defs><style>.cls-1{fill:#010101;}.cls-2{fill:#eb5c2a;}.cls-3{fill:#e84138;}.cls-4{fill:#be202e;}.cls-5{fill:#fff;}.cls-6{fill:#bbbdbf;}.cls-7{fill:#d0d2d3;}.cls-8{fill:#ec681c;}.cls-9{fill:#cc3617;}.cls-10{fill:#1d1d1b;}</style></defs><g id="Calque_2" data-name="Calque 2"><path class="cls-1" d="M163.76,1.9C172.48-2.33,183.93.72,189.12,9c2.94,5.39,5.19,11.13,8,16.61,5.13-2.51,10.39-5.26,16.23-5.31,7.85-.41,16,3.9,19.29,11.16,1,2.55,2.55,4.9,2.85,7.69,1.61,9.12-4.15,18.21-12.05,22.44-5.59,2.86-11.39,5.27-17,8a117.51,117.51,0,0,1,45.15,36.84c.43.82,1.44.16,2,0,4.59-2,9.81-.8,14,1.58,6.95,4.26,11.1,12,12.75,19.76,2.62,10.93.48,23.87-7.84,31.89-.28,4.16.14,8.34-.36,12.48,10.6,1.23,21.3,2.54,31.39,6.21,3.71,1.41,7.74,3.56,9.25,7.49,1.2,3.08-.24,6.45-2.54,8.59-5.18,4.83-11.91,7.52-18.58,9.57a139.25,139.25,0,0,1-38.21,4.85c-15.95,15.77-38,23.64-59.55,27.95-8.55,1.24-17.11,2.72-25.76,2.93-4.47,7.23-8.51,15.31-8.07,24.07-9.37-3-15.39-13-15.55-22.62-3.2-3.25-8.21-1.82-12.25-2.9-4.65,7.74-9.32,16.16-8.84,25.51-9.37-3-15.39-13-15.56-22.61-4.54-3.11-8.47-8-8.46-13.74-13.44-7.2-24.79-19-30.16-33.2-5.48,9.46-12.4,19-22,24.82-2.8,1.45-6.28,3-9.4,1.7-5.45-2.25-5.11-9.53-4.66-14.35,1.85-11.85,7.33-22.86,14.11-32.65-11.87.58-24.16-.34-35.16-5.18C8.18,166.81,4,164.29,2.57,160c-1-3.32,1.3-6.44,3.87-8.24,5.55-4.06,12.44-5.44,19.07-6.59,13.79-1.5,28.21-1.07,41.16,4.36a118.26,118.26,0,0,1,7.65-23.12c-11.77-1.89-19.58-14.68-17.36-26,1.95-8.47,9-14.29,16.62-17.54-2.8-8.15-9.14-15.49-8-24.61A20.12,20.12,0,0,1,77.9,41.78q42.9-20,85.86-39.88m3.5,8.33Q125.5,29.58,83.76,49C81,50.24,78,51.46,76.36,54.2,72.69,59.13,75.08,65.33,77.87,70c1.19,2.78,2.43,5.56,3.8,8.27,7.08-2.91,13.89-6.49,20.92-9.54,1-2.69,1.55-5.49,2.44-8.2,3.26.61,6.19,5,9.57,2.59q37-17.24,74-34.38c-1.29-2.77-2.45-5.61-3.91-8.3a51.11,51.11,0,0,0-3.32-6.92,11.23,11.23,0,0,0-14.07-3.32m37.22,21.86Q141.93,61.15,79.36,90.19C75,92.3,70.06,94,67.43,98.41c-3.47,4.66-1.54,11.26,1.82,15.13,4.18,5.77,12.93,4.51,18.44,1.24,5.82-2.62,11.56-5.44,17.39-8,.4-1.76,1.08-3.43,1.6-5.15,2.12.52,4.1,3.07,6.33,1.43,5.38-2.61,10.95-4.84,16.21-7.66.48-3,1.65-5.73,2.35-8.62.44-.59.39-1.42.63-2.08.68.34,1.36.71,2,1,3.19,1.14,6.4,5,9.93,2.9,24.41-11.44,48.89-22.72,73.32-34.11,5.51-2.31,10.15-8.06,9-14.32-1.32-4.05-3.3-8.64-7.72-10-4.74-2-10-.34-14.31,1.94m-10.07,43c-34.75,16.2-69.56,32.26-104.29,48.5-2.59,1.66-6.77,1.18-7.64,4.73-9,19.43-13.32,42.66-5.28,63.06C81,201.91,88.68,210.86,98,216.81c-1.19-6.71,3-12.35,8.11-16.08l-.19,0c9.49-6,21.32-9.46,28.1-19-2.9,10.34-13.06,15.87-21,22-4.25,3.38-10.08,7.28-9.35,13.43,6.49-7.5,15.84-11.9,25.15-14.82-7,5.66-15,10.66-19.74,18.51-2.73,3.82-1.8,9.58,1.4,12.55,2.74-14.73,16.77-23.79,29.29-30.18-9.2,9.24-19.21,18.83-23,31.73-1.33,5.62-1.41,11.92,1.16,17.17,1.76-13.81,12.28-24,20.24-34.71,8.83-10.8,17.5-24.34,14-39,3.92,11.41.59,23.75-4.47,34.26l-.18-.06c-2.9,6.28-6.8,12-10.48,17.83,16.24,2.34,32.82,1.43,49-.85,19.73-3.05,39.64-9,55.65-21.38-4.08-.62-8.93-1.31-11.32-5.14-4.24-6.39-3.77-14.78-1.8-21.89,1.51-5.6,6.35-10.66,12.43-10.67,7.62,0,15.23.32,22.83.87.17-2.51.31-5,.29-7.56-.21.1-.41.21-.61.32a19.78,19.78,0,0,1-17-7.69c-8.69-10.68-10.1-26.12-4.88-38.67,1.08-2,2.81-4,3.56-6.06a107.13,107.13,0,0,0-47.39-36.67,3.82,3.82,0,0,0-3.44,0m61.05,36.57c-7.12,3.06-10.53,11.14-11,18.45-.74,10.4,2.82,23.09,13.11,27.72,6.95,2.65,13.62-3.28,15.69-9.54,4.89-11.22,2.38-26.42-7.25-34.45-2.93-2.31-7-3.6-10.6-2.18m-12.75,67.18c-6.56-.46-7.34,7.88-7.28,12.78.35,2.73.27,7.08,3.67,7.82,9.64,1.75,19.54,1.21,29.26.47,11.57-1.59,23.83-3,33.77-9.68l-.18,0a10.14,10.14,0,0,0,2.83-2c-6-4.15-13.61-4.57-20.53-6.28a264,264,0,0,0-41.54-3.15M152.6,240.19c-.17,4,.06,8.33,2,12,.41-4.23,2-8.18,3.79-12C156.43,240.14,154.52,240.14,152.6,240.19Z"/><path class="cls-2" d="M214.34,5.06A21.63,21.63,0,0,1,216.7.32c.8,1.59,1.59,3.19,2.42,4.77,1.88.18,3.73.62,5.62.85-1.31,1.2-2.6,2.43-3.88,3.66a23.73,23.73,0,0,0,.71,5.63c-1.42-.62-2.75-1.43-4.14-2.09-2.06-.49-3.55,1.51-5.44,1.95.08-1.75.61-3.46.56-5.21C211.37,8.5,210,7.28,208.72,6A41.24,41.24,0,0,0,214.34,5.06Z"/><path class="cls-3" d="M167.26,10.23a11.23,11.23,0,0,1,14.07,3.32,51.11,51.11,0,0,1,3.32,6.92C149,36.84,113.44,53.46,77.87,70c-2.79-4.7-5.18-10.9-1.51-15.83,1.62-2.74,4.64-4,7.4-5.19Q125.51,29.62,167.26,10.23Z"/><path class="cls-4" d="M77.87,70C113.44,53.46,149,36.84,184.65,20.47c1.46,2.69,2.62,5.53,3.91,8.3q-37,17.22-74,34.38c-3.38,2.4-6.31-2-9.57-2.59-.89,2.71-1.49,5.51-2.44,8.2-7,3-13.84,6.63-20.92,9.54C80.3,75.59,79.06,72.81,77.87,70Z"/><path class="cls-2" d="M250.29,30a36.81,36.81,0,0,1,3.23-6.35c1,2.14,2,4.28,3.16,6.38,2.38,0,4.65.83,7,.85-1.58,1.79-3.58,3.21-5,5.14-.16,2.42.69,4.76,1.1,7.12-2-1.3-4.24-2.21-6.28-3.45-2.17,1-4.2,2.25-6.37,3.23.17-2.33.86-4.6.93-6.93-1.23-2-3.55-3.1-4.87-5.08C245.6,30.74,247.93,30.29,250.29,30Z"/><path class="cls-2" d="M39.74,28.69a23.12,23.12,0,0,1,1.4,3c1.14.17,2.28.3,3.43.39a4.59,4.59,0,0,0-2.17,5.41,4.12,4.12,0,0,0-5.41,0,4.33,4.33,0,0,0-2-5.43l3.26-.34C38.75,30.69,39.24,29.69,39.74,28.69Z"/><path class="cls-5" d="M204.48,32.09c4.32-2.28,9.57-4,14.31-1.94,4.42,1.38,6.4,6,7.72,10-3.9,5.22-10.42,7.06-16,9.86-25.38,12-51,23.39-76.27,35.67-.68-.33-1.36-.7-2-1-.24.66-.19,1.49-.63,2.08-17.89,8.18-35.66,16.6-53.54,24.78a24.36,24.36,0,0,1-8.78,2c-3.36-3.87-5.29-10.47-1.82-15.13C70.06,94,75,92.3,79.36,90.19Q141.94,61.18,204.48,32.09Z"/><path class="cls-2" d="M6.88,43.84c1.26-2.08,2.07-4.39,3.41-6.41,1,2.15,2.18,4.19,3.16,6.35,2.34.42,4.72.5,7.07.86q-2.52,2.53-5.09,5c.1,2.4.82,4.71,1.09,7.08-2.19-1-4.15-2.37-6.39-3.22-2.14.87-4,2.31-6.21,3.14C4,54.26,5,52,4.84,49.55A55.38,55.38,0,0,1,0,44.68C2.32,44.5,4.58,44,6.88,43.84Z"/><path class="cls-6" d="M226.51,40.17c1.13,6.26-3.51,12-9,14.32-24.43,11.39-48.91,22.67-73.32,34.11-3.53,2.1-6.74-1.76-9.93-2.9C159.46,73.42,185.13,62,210.51,50,216.09,47.23,222.61,45.39,226.51,40.17Z"/><path class="cls-2" d="M254.57,65.9c1.14.57,1.35,2.45,2.07,3.56,1.44.22,2.88.46,4.34.62-1,1-2,2-3,3a33,33,0,0,0,.41,4.08,5.48,5.48,0,0,0-7.33.15c1.16-3,.25-5.41-2.29-7.2C252.14,70.81,253.91,69,254.57,65.9Z"/><path class="cls-2" d="M38.94,78.41c.92-1.23,1.14-3.1,2.32-4,.56,3.63,3.18,4.68,6.51,4.41C45,80.6,43.83,83.26,45,86.49c-1.36-.57-2.59-1.6-4.07-1.8-1.29.44-2.34,1.44-3.67,1.83.61-3.08.21-5.83-2.68-7.65A36.06,36.06,0,0,1,38.94,78.41Z"/><path class="cls-3" d="M194.41,75.13a3.82,3.82,0,0,1,3.44,0,107.13,107.13,0,0,1,47.39,36.67c-.75,2-2.48,4-3.56,6.06-11.25,11.88-9.59,33.07,2.36,43.93,5.14,4.78,13.37,6.21,19.49,2.43.2-.11.4-.22.61-.32,0,2.53-.12,5.05-.29,7.56-7.6-.55-15.21-.89-22.83-.87-2.22-.23-3.89-2.15-6.19-2.17-4.93-.84-9.56,2.2-12.49,5.91-6.12,8.15-7.32,19.37-4,28.9a170.7,170.7,0,0,1-21.65,5.7c-10.52,1.71-20.87-3.73-31.34-1.36-5.67,2.15-11.1,7.55-17.63,5.18,5.06-10.51,8.39-22.85,4.47-34.26,3.48,14.65-5.19,28.19-14,39-8,10.69-18.48,20.9-20.24,34.71-2.57-5.25-2.49-11.55-1.16-17.17,3.8-12.9,13.81-22.49,23-31.73-12.52,6.39-26.55,15.45-29.29,30.18-3.2-3-4.13-8.73-1.4-12.55,4.74-7.85,12.77-12.85,19.74-18.51-9.31,2.92-18.66,7.32-25.15,14.82-.73-6.15,5.1-10.05,9.35-13.43,8-6.15,18.14-11.68,21-22-6.78,9.53-18.61,13-28.1,19-3.6,0-6.65,3-10.3,2.06A76,76,0,0,1,77.2,191.42c-8-20.4-3.74-43.63,5.28-63.06.87-3.55,5-3.07,7.64-4.73,34.73-16.24,69.54-32.3,104.29-48.5m1.11,35.26c-5.78.94-10.55,5-14.07,9.51-10,13.59-8.93,33.67,1.41,46.77-3.88,3.43-8,6.65-11.66,10.32,1,1.83,2.87,3.4,4.3,5,4.29-3.25,8-7.22,12.32-10.39,1.29.8,2.57,1.64,3.78,2.56-2,4.81-4.09,9.57-6,14.38,2,.91,4.13,1.72,6.18,2.61,2.42-4.78,4.22-9.83,6.45-14.69,10,2.18,20.72-3.45,25.44-12.37,9.47-11.4,10-28.35,3.84-41.44-3.13-6.83-8.89-12.73-16.18-15C206,106.08,200.11,107.41,195.52,110.39Z"/><path class="cls-2" d="M268,91.65a20.9,20.9,0,0,1,2.74-5.44c.86,1.83,1.73,3.66,2.7,5.44a48.87,48.87,0,0,1,6.15,1.1c-1.47,1.41-3.31,2.56-4.35,4.34.13,2,.52,3.94.83,5.9-1.76-.94-3.59-1.77-5.3-2.8-1.87.83-3.61,1.92-5.47,2.77a37.06,37.06,0,0,0,.65-6.2c-1.43-1.45-3-2.78-4.31-4.31A38.68,38.68,0,0,0,268,91.65Z"/><path class="cls-6" d="M78,111.52c17.88-8.18,35.65-16.6,53.54-24.78-.7,2.89-1.87,5.66-2.35,8.62-5.26,2.82-10.83,5-16.21,7.66-2.23,1.64-4.21-.91-6.33-1.43-.52,1.72-1.2,3.39-1.6,5.15-5.83,2.6-11.57,5.42-17.39,8-5.51,3.27-14.26,4.53-18.44-1.24A24.36,24.36,0,0,0,78,111.52Z"/><path class="cls-2" d="M10.18,100.45A54.31,54.31,0,0,0,13.47,107a27.19,27.19,0,0,1,6.81,1.14c-1.58,1.63-3.46,3-4.78,4.86-.23,2.36.61,4.63,1.06,6.92-2.22-.85-4.16-2.38-6.39-3.13-2.22.69-4.08,2.23-6.23,3.11A58.25,58.25,0,0,0,4.88,113c-1.24-2-3.55-3.12-4.88-5.09,2.35-.44,4.8-.48,7.09-1.07C8.06,104.67,9.14,102.56,10.18,100.45Z"/><path class="cls-1" d="M195.52,110.39c4.59-3,10.44-4.31,15.76-2.65,7.29,2.23,13.05,8.13,16.18,15,6.19,13.09,5.63,30-3.84,41.44-6.89,8.24-20.19,9.19-28.14,2-15.75-13.75-17.07-42.59,0-55.74m7.35,3.43c-8.32,2.87-12.65,12.13-13,20.42-.55,2.52-.13,5.16-.06,7.72,1.33,9.4,6.26,19.92,16.15,22.61,7.4,1.76,13.89-4.25,16.53-10.59a34.21,34.21,0,0,0-4.1-33.93C214.76,115.53,208.87,112.1,202.87,113.82Z"/><path class="cls-4" d="M181.45,119.9c3.52-4.47,8.29-8.57,14.07-9.51-17.11,13.15-15.79,42,0,55.74,8,7.2,21.25,6.25,28.14-2-4.72,8.92-15.4,14.55-25.44,12.37-2.16-.55-4.09-1.74-6.15-2.57l-.43.27c-1.21-.92-2.49-1.76-3.78-2.56-1.08-2.09-2.93-3.63-4.33-5.48-.22.16-.43.33-.63.5C172.52,153.57,171.49,133.49,181.45,119.9Z"/><path class="cls-5" d="M255.46,111.7c3.63-1.42,7.67-.13,10.6,2.18,9.63,8,12.14,23.23,7.25,34.45-5.63,5.79-15.49,4.79-20.65-1.13-4.49-4.62-7-10.8-8.15-17,.42-7.31,3.83-15.39,11-18.45m6.47,7.09q-4.5,11.43-9,22.86c3.43,2.08,6.73,4.36,10,6.64q1.39-2.13,2.76-4.29c-2-1.7-4.49-2.7-6.36-4.45,2.14-6.45,5.1-12.64,7.26-19.09C265,120,263.54,119.22,261.93,118.79Z"/><path class="cls-5" d="M202.87,113.82c6-1.72,11.89,1.71,15.56,6.23a34.21,34.21,0,0,1,4.1,33.93c-5.29,4.39-13.13,5.64-19.12,1.93-7.71-4.49-11.93-13.17-13.5-21.67.31-8.29,4.64-17.55,13-20.42m-2.43,11.61c3.57,5.46,7.49,10.69,11.24,16,.39.63,1.34,1.44.64,2.18-2.34,2.78-4.92,5.36-7.3,8.11,1.7,1.53,3.44,3,5.1,4.61,3.84-4.21,8-8.39,11.39-12.84-5.08-7.39-10.3-14.75-15.55-22C204.15,122.83,202.15,124,200.44,125.43Z"/><path class="cls-4" d="M244,161.77c-11.95-10.86-13.61-32.05-2.36-43.93-5.22,12.55-3.81,28,4.88,38.67a19.78,19.78,0,0,0,17,7.69C257.41,168,249.18,166.55,244,161.77Z"/><path class="cls-1" d="M261.93,118.79c1.61.43,3.11,1.19,4.7,1.67-2.16,6.45-5.12,12.64-7.26,19.09,1.87,1.75,4.4,2.75,6.36,4.45q-1.37,2.16-2.76,4.29c-3.3-2.28-6.6-4.56-10-6.64Q257.41,130.21,261.93,118.79Z"/><path class="cls-2" d="M48,121.23c.77,1.46,1.51,2.94,2.27,4.41,1.62.16,3.24.34,4.85.59a6,6,0,0,0-2.83,8.14,42.25,42.25,0,0,0-4.36-2.06c-1.55.37-2.74,1.66-4.3,2.08A6.38,6.38,0,0,0,41,126.21c1.59-.23,3.17-.47,4.77-.63C46.51,124.12,47.25,122.68,48,121.23Z"/><path class="cls-1" d="M200.44,125.43c1.71-1.47,3.71-2.6,5.52-4,5.25,7.29,10.47,14.65,15.55,22-3.41,4.45-7.55,8.63-11.39,12.84-1.66-1.58-3.4-3.08-5.1-4.61,2.38-2.75,5-5.33,7.3-8.11.7-.74-.25-1.55-.64-2.18C207.93,136.12,204,130.89,200.44,125.43Z"/><path class="cls-7" d="M244.51,130.15c1.19,6.25,3.66,12.43,8.15,17,5.16,5.92,15,6.92,20.65,1.13-2.07,6.26-8.74,12.19-15.69,9.54C247.33,153.24,243.77,140.55,244.51,130.15Z"/><path class="cls-7" d="M189.85,142c-.07-2.56-.49-5.2.06-7.72,1.57,8.5,5.79,17.18,13.5,21.67,6,3.71,13.83,2.46,19.12-1.93-2.64,6.34-9.13,12.35-16.53,10.59C196.11,161.88,191.18,151.36,189.85,142Z"/><path class="cls-1" d="M182.86,166.67c.2-.17.41-.34.63-.5,1.4,1.85,3.25,3.39,4.33,5.48-4.34,3.17-8,7.14-12.32,10.39-1.43-1.65-3.27-3.22-4.3-5C174.83,173.32,179,170.1,182.86,166.67Z"/><path class="cls-4" d="M222.34,174.31c2.93-3.71,7.56-6.75,12.49-5.91,2.3,0,4,1.94,6.19,2.17-6.08,0-10.92,5.07-12.43,10.67-2,7.11-2.44,15.5,1.8,21.89,2.39,3.83,7.24,4.52,11.32,5.14-16,12.35-35.92,18.33-55.65,21.38-16.19,2.28-32.77,3.19-49,.85,3.68-5.82,7.58-11.55,10.48-17.83l.18.06c6.53,2.37,12-3,17.63-5.18,10.47-2.37,20.82,3.07,31.34,1.36a170.7,170.7,0,0,0,21.65-5.7C215,193.68,216.22,182.46,222.34,174.31Z"/><path class="cls-1" d="M191.6,174.21l.43-.27c2.06.83,4,2,6.15,2.57-2.23,4.86-4,9.91-6.45,14.69-2-.89-4.14-1.7-6.18-2.61C187.51,183.78,189.62,179,191.6,174.21Z"/><path class="cls-8" d="M242.71,178.88A264,264,0,0,1,284.25,182c6.92,1.71,14.49,2.13,20.53,6.28a10.14,10.14,0,0,1-2.83,2c-21.88,4.39-44.42,3.21-66.52,1.36C235.37,186.76,236.15,178.42,242.71,178.88Z"/><path class="cls-9" d="M235.43,191.66c22.1,1.85,44.64,3,66.52-1.36l.18,0c-9.94,6.64-22.2,8.09-33.77,9.68-9.72.74-19.62,1.28-29.26-.47C235.7,198.74,235.78,194.39,235.43,191.66Z"/><path class="cls-4" d="M77.2,191.42a76,76,0,0,0,18.46,11.39c3.65,1,6.7-2.08,10.3-2.06l.19,0c-5.07,3.73-9.3,9.37-8.11,16.08C88.68,210.86,81,201.91,77.2,191.42Z"/><path class="cls-4" d="M152.6,240.19c1.92-.05,3.83-.05,5.75,0-1.76,3.82-3.38,7.77-3.79,12C152.66,248.52,152.43,244.22,152.6,240.19Z"/><path class="cls-10" d="M393.4,33.76c21.14,0,37.09,11.9,42.15,31.14h-23.8c-3.67-7.59-10.38-11.39-18.61-11.39-13.29,0-22.4,9.87-22.4,25.57s9.11,25.57,22.4,25.57c8.23,0,14.94-3.79,18.61-11.39h23.8c-5.06,19.24-21,31-42.15,31-26.21,0-44.69-18.61-44.69-45.2S367.19,33.76,393.4,33.76Z"/><path class="cls-10" d="M448.47,34.77h21.64V87.94c0,10.51,5.19,16.59,15.45,16.59s15.69-6.08,15.69-16.59V34.77H522.9v53c0,24.56-17.22,36.71-37.72,36.71s-36.71-12.15-36.71-36.71Z"/><path class="cls-10" d="M538.09,34.77h21.65v88.87H538.09Z"/><path class="cls-10" d="M393.4,139.26c21.14,0,37.09,11.9,42.15,31.14h-23.8c-3.67-7.6-10.38-11.39-18.61-11.39-13.29,0-22.4,9.87-22.4,25.57s9.11,25.57,22.4,25.57c8.23,0,14.94-3.8,18.61-11.39h23.8c-5.06,19.24-21,31-42.15,31-26.21,0-44.69-18.61-44.69-45.19S367.19,139.26,393.4,139.26Z"/><path class="cls-10" d="M448.47,140.27h21.64v53.17c0,10.51,5.19,16.58,15.45,16.58s15.69-6.07,15.69-16.58V140.27H522.9v53c0,24.56-17.22,36.72-37.72,36.72s-36.71-12.16-36.71-36.72Z"/><path class="cls-10" d="M538.09,140.27h21.65v88.87H538.09Z"/><path class="cls-10" d="M570.63,140.27h68.74v17.34H615.82v71.53H594.17V157.61H570.63Z"/><path class="cls-10" d="M704.69,157.61H671.9v18h29V192.3h-29v19.5h32.79v17.34H650.26V140.27h54.43Z"/></g></svg>